<mxfile host="app.diagrams.net" modified="2023-04-13T07:32:50.361Z" agent="Mozilla/5.0 (Windows NT 10.0; Win64; x64) AppleWebKit/537.36 (KHTML, like Gecko) Chrome/111.0.0.0 Safari/537.36" version="21.1.7" etag="5iF54wnCVZDnUIMXTyd8" type="github">
  <diagram name="Page-1" id="5RE9Bs10Q-sAIDfuceVM">
    <mxGraphModel>
      <root>
        <mxCell id="0" />
        <mxCell id="1" parent="0" />
      </root>
    </mxGraphModel>
  </diagram>
</mxfile>
